<svg width="46" height="46" viewBox="0 0 46 46" fill="none" xmlns="http://www.w3.org/2000/svg">
<path fill-rule="evenodd" clip-rule="evenodd" d="M46 6.05625C45.9897 2.70969 43.2735 0 39.9245 0H6.07546C2.72013 0 0 2.72013 0 6.07546V16.2286C3.27009 12.366 8.64005 9.06299 15.1991 7.3171C27.6722 3.99681 39.7219 7.56507 42.1129 15.2868C44.5039 23.0086 36.3307 31.96 23.8576 35.2802C22.762 35.5718 21.6699 35.8103 20.5871 35.9975C22.2381 39.2909 23.5604 42.8351 24.2939 46H39.9245C43.2735 46 45.9897 43.2903 46 39.9437V6.05625ZM35.88 42.32V42.6407H36.4433V44.16H36.8278V42.6407H37.3912V42.32H35.88ZM38.1198 42.32H37.64V44.16H38.0174V42.9579H38.0327L38.5088 44.151H38.7658L39.242 42.9624H39.2572V44.16H39.6346V42.32H39.1548L38.6481 43.5562H38.6265L38.1198 42.32Z" fill="#FF0032"/>
<path d="M10.1809 46H21.6858C21.0516 43.0537 19.7391 39.5747 17.9947 36.3508C11.2494 37.0221 5.08999 35.6899 1.11361 32.8269C1.41875 33.4835 1.75678 34.1563 2.12772 34.842C4.07104 38.4336 7.08687 42.573 10.1809 46Z" fill="#FF0032"/>
<path d="M1.21008 38.1432C2.83985 40.7316 4.97678 43.4718 7.30093 46H6.07546C2.72013 46 0 43.2799 0 39.9245V35.9694C0.373975 36.6943 0.777598 37.4205 1.21008 38.1432Z" fill="#FF0032"/>
<path d="M0 27.6267C1.8765 31.1628 7.8985 33.0523 15.5269 32.3686C11.2929 26.3111 5.61187 21.4008 2.14861 21.2217C1.46063 21.1861 0.885185 21.32 0.422153 21.6029C0.264141 21.8822 0.123198 22.1624 0 22.443V27.6267Z" fill="#FF0032"/>
<path d="M18.3407 32.0092C13.8103 24.8595 7.38325 19.4941 2.59963 18.8026C6.29378 15.0857 12.7968 11.8834 20.0875 10.5866C31.1701 8.61545 39.8759 11.7937 39.5327 17.6855C39.1895 23.5774 29.9272 29.9515 18.8447 31.9228C18.6762 31.9527 18.5081 31.9816 18.3407 32.0092Z" fill="#FF0032"/>
</svg>
