<svg width="117" height="27" viewBox="0 0 117 27" fill="none" xmlns="http://www.w3.org/2000/svg">
<path d="M6.28558 0.799998C10.2456 0.799998 12.1896 2.996 12.1896 7.028V10.304C12.1896 14.336 10.2456 16.532 6.28558 16.532H4.41358V26H0.453577V0.799998H6.28558ZM4.41358 4.4V12.932H6.28558C7.54558 12.932 8.22958 12.356 8.22958 10.556V6.776C8.22958 4.976 7.54558 4.4 6.28558 4.4H4.41358ZM25.6629 26H21.6669L20.9829 21.428H16.1229L15.4389 26H11.8029L15.8349 0.799998H21.6309L25.6629 26ZM16.6269 18.008H20.4429L18.5349 5.264L16.6269 18.008ZM32.943 0.799998C36.903 0.799998 38.847 2.996 38.847 7.028V10.304C38.847 14.336 36.903 16.532 32.943 16.532H31.071V26H27.111V0.799998H32.943ZM31.071 4.4V12.932H32.943C34.203 12.932 34.887 12.356 34.887 10.556V6.776C34.887 4.976 34.203 4.4 32.943 4.4H31.071ZM44.2453 11.42H49.6813V15.02H44.2453V22.4H51.0853V26H40.2853V0.799998H51.0853V4.4H44.2453V11.42ZM61.4232 26C61.2072 25.352 61.0632 24.956 61.0632 22.904V18.944C61.0632 16.604 60.2712 15.74 58.4712 15.74H57.1032V26H53.1432V0.799998H59.1192C63.2232 0.799998 64.9872 2.708 64.9872 6.596V8.576C64.9872 11.168 64.1592 12.86 62.3952 13.688C64.3752 14.516 65.0232 16.424 65.0232 19.052V22.94C65.0232 24.164 65.0592 25.064 65.4552 26H61.4232ZM57.1032 4.4V12.14H58.6512C60.1272 12.14 61.0272 11.492 61.0272 9.476V6.992C61.0272 5.192 60.4152 4.4 59.0112 4.4H57.1032ZM67.2316 0.799998H71.1916V22.4H77.7076V26H67.2316V0.799998ZM82.9948 11.42H88.4308V15.02H82.9948V22.4H89.8348V26H79.0348V0.799998H89.8348V4.4H82.9948V11.42ZM91.3887 6.848C91.3887 2.816 93.3687 0.512 97.2207 0.512C101.073 0.512 103.053 2.816 103.053 6.848V7.64H99.3087V6.596C99.3087 4.796 98.5887 4.112 97.3287 4.112C96.0687 4.112 95.3487 4.796 95.3487 6.596C95.3487 11.78 103.089 12.752 103.089 19.952C103.089 23.984 101.073 26.288 97.1847 26.288C93.2967 26.288 91.2807 23.984 91.2807 19.952V18.404H95.0247V20.204C95.0247 22.004 95.8167 22.652 97.0767 22.652C98.3367 22.652 99.1287 22.004 99.1287 20.204C99.1287 15.02 91.3887 14.048 91.3887 6.848ZM104.458 6.848C104.458 2.816 106.438 0.512 110.29 0.512C114.142 0.512 116.122 2.816 116.122 6.848V7.64H112.378V6.596C112.378 4.796 111.658 4.112 110.398 4.112C109.138 4.112 108.418 4.796 108.418 6.596C108.418 11.78 116.158 12.752 116.158 19.952C116.158 23.984 114.142 26.288 110.254 26.288C106.366 26.288 104.35 23.984 104.35 19.952V18.404H108.094V20.204C108.094 22.004 108.886 22.652 110.146 22.652C111.406 22.652 112.198 22.004 112.198 20.204C112.198 15.02 104.458 14.048 104.458 6.848Z" fill="#454545"/>
</svg>
